<?xml version="1.0" encoding="utf-8"?>
<!-- Generator: Adobe Illustrator 19.2.1, SVG Export Plug-In . SVG Version: 6.00 Build 0)  -->
<svg version="1.1" id="Warstwa_1" xmlns="http://www.w3.org/2000/svg" xmlns:xlink="http://www.w3.org/1999/xlink" x="0px" y="0px"
	 viewBox="0 0 26.5 26.5" style="enable-background:new 0 0 26.5 26.5;" xml:space="preserve">
<style type="text/css">
	.st0{fill:#010202;}
</style>
<path class="st0" d="M21.3,13.3c0,4.4-3.6,8-8,8c-4.4,0-8-3.6-8-8c0-0.5,0.1-1,0.1-1.5H0v10.7c0,2.3,1.9,4.1,4.1,4.1h18.2
	c2.3,0,4.1-1.9,4.1-4.1V11.7h-5.4C21.2,12.2,21.3,12.7,21.3,13.3z M22.4,0H4.1C1.9,0,0,1.9,0,4.1v4.5h6.7c1.5-2.1,3.8-3.4,6.6-3.4
	c2.7,0,5.1,1.3,6.5,3.4h6.7V4.1C26.5,1.9,24.7,0,22.4,0z M24.4,5.1c0,0.4-0.3,0.7-0.7,0.7h-2.2c-0.4,0-0.7-0.3-0.7-0.7V2.9
	c0-0.4,0.3-0.7,0.7-0.7h2.2c0.4,0,0.7,0.3,0.7,0.7V5.1z M18.2,13.3c0-2.7-2.2-4.9-4.9-4.9c-2.7,0-4.9,2.2-4.9,4.9s2.2,4.9,4.9,4.9
	C16,18.2,18.2,16,18.2,13.3z"/>
</svg>
