<?xml version="1.0" encoding="utf-8"?>
<!-- Generator: Adobe Illustrator 16.0.0, SVG Export Plug-In . SVG Version: 6.00 Build 0)  -->
<!DOCTYPE svg PUBLIC "-//W3C//DTD SVG 1.1//EN" "http://www.w3.org/Graphics/SVG/1.1/DTD/svg11.dtd">
<svg version="1.1" id="logo_kleek" xmlns="http://www.w3.org/2000/svg" xmlns:xlink="http://www.w3.org/1999/xlink" x="0px" y="0px"
	 width="478.447px" height="175px" viewBox="0 0 478.447 175" enable-background="new 0 0 478.447 175" xml:space="preserve">
<g>
	<defs>
		<rect id="SVGID_1_" x="-179.992" y="-210.14" width="841.89" height="595.28"/>
	</defs>
	<clipPath id="SVGID_2_">
		<use xlink:href="#SVGID_1_"  overflow="visible"/>
	</clipPath>
	<path clip-path="url(#SVGID_2_)" fill-rule="evenodd" clip-rule="evenodd" d="M0,40.832c0-9.665,7.834-17.5,17.503-17.5
		c9.662,0,17.496,7.835,17.496,17.5v28.166c0,3.222-2.611,5.831-5.832,5.831c-3.22,0-5.835-2.609-5.835-5.831V40.832
		c0-3.22-2.609-5.836-5.829-5.836c-3.227,0-5.838,2.616-5.838,5.836v93.332c0,3.226,2.611,5.833,5.838,5.833
		c3.22,0,5.829-2.607,5.829-5.833v-30.166c0-7.733,3.074-15.154,8.543-20.625L86.794,28.46c4.42-4.423,10.863-6.152,16.9-4.531
		c6.042,1.617,10.76,6.331,12.374,12.375c1.619,6.037-0.105,12.48-4.527,16.902L77.245,87.499l34.296,34.292
		c6.834,6.834,6.834,17.915,0,24.751c-6.833,6.834-17.913,6.834-24.747,0l-38.42-38.419c-1.473-1.473-2.049-3.622-1.507-5.636
		c0.537-2.011,2.109-3.583,4.123-4.125c2.01-0.54,4.162,0.036,5.636,1.511l38.418,38.416c2.277,2.277,5.967,2.277,8.245,0
		c2.277-2.277,2.277-5.97,0-8.252L64.873,91.625c-1.09-1.096-1.706-2.578-1.706-4.125c0-1.55,0.616-3.032,1.706-4.127l38.416-38.418
		c2.277-2.277,2.277-5.97,0-8.247c-2.278-2.277-5.968-2.277-8.245,0l-54.92,54.917c-3.28,3.277-5.125,7.729-5.125,12.373v30.166
		c0,9.663-7.834,17.5-17.496,17.5c-9.669,0-17.503-7.837-17.503-17.5V40.832z M227.539,175h81.668c9.662,0,17.5-7.838,17.5-17.506
		c0-9.661-7.838-17.498-17.5-17.498h-81.668c-3.222,0-5.833,2.614-5.833,5.837c0,3.22,2.611,5.83,5.833,5.83h81.668
		c3.222,0,5.833,2.611,5.833,5.831c0,3.226-2.611,5.836-5.833,5.836h-81.668c-9.665,0-17.498-7.835-17.498-17.497
		c0-3.223-2.613-5.837-5.836-5.837H157.54c-9.662,0-17.5-7.833-17.5-17.5V40.832c0-3.22,2.611-5.836,5.831-5.836
		c3.223,0,5.836,2.616,5.836,5.836v81.665c0,3.224,2.611,5.837,5.833,5.837h46.665c3.223,0,5.836-2.613,5.836-5.837V75.832
		c0-4.642,1.841-9.091,5.121-12.376c3.286-3.281,7.74-5.122,12.377-5.122h81.668c3.222,0,5.833,2.607,5.833,5.829
		s-2.611,5.836-5.833,5.836h-81.668c-3.222,0-5.833,2.611-5.833,5.833c0,3.225,2.611,5.829,5.833,5.829h81.668
		c9.662,0,17.5-7.831,17.5-17.498c0-9.663-7.838-17.498-17.5-17.498h-81.668c-7.734,0-15.156,3.07-20.622,8.543
		c-5.473,5.469-8.545,12.89-8.545,20.624v40.834h-34.996V40.832c0-9.665-7.84-17.5-17.505-17.5c-9.662,0-17.498,7.835-17.498,17.5
		v81.665c0,16.11,13.058,29.167,29.167,29.167h41.421C201.736,165.246,213.678,175,227.539,175 M320.871,128.333
		c16.108,0,29.167-13.059,29.167-29.167V29.165C350.038,13.06,336.979,0,320.871,0h-81.663c-9.667,0-17.502,7.833-17.502,17.498
		s7.835,17.498,17.502,17.498h81.663c3.221,0,5.836-2.609,5.836-5.831c0-3.22-2.615-5.833-5.836-5.833h-81.663
		c-3.222,0-5.835-2.612-5.835-5.834s2.613-5.833,5.835-5.833h81.663c9.665,0,17.503,7.831,17.503,17.5v70.001
		c0,9.665-7.838,17.5-17.503,17.5h-81.663c-3.222,0-5.835-2.615-5.835-5.839c0-3.22,2.613-5.828,5.835-5.828h81.663
		c3.221,0,5.836-2.613,5.836-5.833c0-3.221-2.615-5.837-5.836-5.837h-81.663c-9.667,0-17.502,7.836-17.502,17.498
		c0,9.667,7.835,17.506,17.502,17.506H320.871z M361.781,134.164c0,9.663,7.833,17.5,17.498,17.5s17.498-7.837,17.498-17.5v-30.166
		c0-4.644,1.847-9.096,5.128-12.373l54.917-54.917c2.274-2.277,5.97-2.277,8.247,0s2.277,5.97,0,8.247l-38.417,38.418
		c-1.094,1.095-1.704,2.577-1.704,4.127c0,1.547,0.61,3.03,1.704,4.125l38.417,38.412c2.277,2.282,2.277,5.975,0,8.252
		s-5.973,2.277-8.247,0l-38.418-38.416c-1.476-1.475-3.623-2.051-5.634-1.511c-2.014,0.542-3.585,2.114-4.125,4.125
		c-0.542,2.014,0.035,4.163,1.51,5.636l38.417,38.419c6.835,6.834,17.915,6.834,24.749,0c6.835-6.836,6.835-17.917,0-24.751
		l-34.295-34.292l34.295-34.293c4.418-4.422,6.146-10.865,4.528-16.902c-1.619-6.044-6.336-10.758-12.375-12.375
		c-6.037-1.621-12.481,0.108-16.902,4.531l-54.919,54.912c-5.466,5.471-8.541,12.892-8.541,20.625v30.166
		c0,3.226-2.611,5.833-5.833,5.833c-3.226,0-5.836-2.607-5.836-5.833V40.832c0-3.22,2.61-5.836,5.836-5.836
		c3.222,0,5.833,2.616,5.833,5.836v28.166c0,3.222,2.614,5.831,5.834,5.831c3.222,0,5.831-2.609,5.831-5.831V40.832
		c0-9.665-7.833-17.5-17.498-17.5s-17.498,7.835-17.498,17.5V134.164z"/>
</g>
</svg>
