<?xml version="1.0" encoding="utf-8"?>
<!-- Generator: Adobe Illustrator 19.2.1, SVG Export Plug-In . SVG Version: 6.00 Build 0)  -->
<svg version="1.1" id="Warstwa_1" xmlns="http://www.w3.org/2000/svg" xmlns:xlink="http://www.w3.org/1999/xlink" x="0px" y="0px"
	 viewBox="0 0 24 30.8" style="enable-background:new 0 0 24 30.8;" xml:space="preserve">
<style type="text/css">
	.st0{fill:#010202;}
</style>
<path class="st0" d="M9.9,20.4c-0.8,4.2-1.8,8.3-4.7,10.4c-0.9-6.4,1.3-11.2,2.4-16.4c-1.8-3,0.2-9,3.9-7.5c4.6,1.8-4,11.1,1.8,12.2
	c6,1.2,8.5-10.4,4.7-14.2C12.6-0.4,2.3,4.9,3.6,12.7c0.3,1.9,2.3,2.5,0.8,5.1c-3.4-0.8-4.5-3.5-4.3-7.1C0.2,4.8,5.3,0.7,10.5,0.1
	C16.9-0.6,23,2.5,23.9,8.6c0.9,6.9-2.9,14.3-9.9,13.8C12.1,22.2,11.3,21.3,9.9,20.4z"/>
</svg>
