<?xml version="1.0" encoding="utf-8"?>
<!-- Generator: Adobe Illustrator 19.2.1, SVG Export Plug-In . SVG Version: 6.00 Build 0)  -->
<svg version="1.1" id="Warstwa_1" xmlns="http://www.w3.org/2000/svg" xmlns:xlink="http://www.w3.org/1999/xlink" x="0px" y="0px"
	 viewBox="0 0 28.4 23.1" style="enable-background:new 0 0 28.4 23.1;" xml:space="preserve">
<style type="text/css">
	.st0{fill:#010202;}
</style>
<path class="st0" d="M28.4,2.7c-1,0.5-2.2,0.8-3.3,0.9c1.2-0.7,2.1-1.9,2.6-3.2c-1.1,0.7-2.4,1.2-3.7,1.4C22.8,0.7,21.3,0,19.6,0
	c-3.2,0-5.8,2.6-5.8,5.8c0,0.5,0.1,0.9,0.2,1.3C9.1,6.9,4.8,4.6,2,1.1C1.5,1.9,1.2,2.9,1.2,4c0,2,1,3.8,2.6,4.8
	c-1,0-1.9-0.3-2.6-0.7c0,0,0,0,0,0.1c0,2.8,2,5.2,4.7,5.7c-0.5,0.1-1,0.2-1.5,0.2c-0.4,0-0.7,0-1.1-0.1c0.7,2.3,2.9,4,5.4,4
	c-2,1.6-4.5,2.5-7.2,2.5c-0.5,0-0.9,0-1.4-0.1c2.6,1.7,5.6,2.6,8.9,2.6c10.7,0,16.6-8.9,16.6-16.6c0-0.3,0-0.5,0-0.8
	C26.6,4.9,27.6,3.9,28.4,2.7z"/>
</svg>
