<?xml version="1.0" encoding="utf-8"?>
<!-- Generator: Adobe Illustrator 19.2.1, SVG Export Plug-In . SVG Version: 6.00 Build 0)  -->
<svg version="1.1" id="Layer_1" xmlns="http://www.w3.org/2000/svg" xmlns:xlink="http://www.w3.org/1999/xlink" x="0px" y="0px"
	 viewBox="0 0 478.4 175" style="enable-background:new 0 0 478.4 175;" xml:space="preserve">
<style type="text/css">
	.st0{clip-path:url(#SVGID_2_);fill:#FFFFFF;}
</style>
<g>
	<g>
		<defs>
			<rect id="SVGID_1_" x="-180" y="-210.1" width="841.9" height="595.3"/>
		</defs>
		<clipPath id="SVGID_2_">
			<use xlink:href="#SVGID_1_"  style="overflow:visible;"/>
		</clipPath>
		<path class="st0" d="M0,40.8c0-9.7,7.8-17.5,17.5-17.5c9.7,0,17.5,7.8,17.5,17.5V69c0,3.2-2.6,5.8-5.8,5.8c-3.2,0-5.8-2.6-5.8-5.8
			V40.8c0-3.2-2.6-5.8-5.8-5.8c-3.2,0-5.8,2.6-5.8,5.8v93.3c0,3.2,2.6,5.8,5.8,5.8c3.2,0,5.8-2.6,5.8-5.8V104
			c0-7.7,3.1-15.2,8.5-20.6l54.9-54.9c4.4-4.4,10.9-6.2,16.9-4.5c6,1.6,10.8,6.3,12.4,12.4c1.6,6-0.1,12.5-4.5,16.9L77.2,87.5
			l34.3,34.3c6.8,6.8,6.8,17.9,0,24.8c-6.8,6.8-17.9,6.8-24.7,0l-38.4-38.4c-1.5-1.5-2-3.6-1.5-5.6c0.5-2,2.1-3.6,4.1-4.1
			c2-0.5,4.2,0,5.6,1.5L95,138.3c2.3,2.3,6,2.3,8.2,0c2.3-2.3,2.3-6,0-8.3L64.9,91.6c-1.1-1.1-1.7-2.6-1.7-4.1c0-1.6,0.6-3,1.7-4.1
			L103.3,45c2.3-2.3,2.3-6,0-8.2c-2.3-2.3-6-2.3-8.2,0L40.1,91.6C36.8,94.9,35,99.4,35,104v30.2c0,9.7-7.8,17.5-17.5,17.5
			c-9.7,0-17.5-7.8-17.5-17.5V40.8z M227.5,175h81.7c9.7,0,17.5-7.8,17.5-17.5c0-9.7-7.8-17.5-17.5-17.5h-81.7
			c-3.2,0-5.8,2.6-5.8,5.8c0,3.2,2.6,5.8,5.8,5.8h81.7c3.2,0,5.8,2.6,5.8,5.8c0,3.2-2.6,5.8-5.8,5.8h-81.7
			c-9.7,0-17.5-7.8-17.5-17.5c0-3.2-2.6-5.8-5.8-5.8h-46.7c-9.7,0-17.5-7.8-17.5-17.5V40.8c0-3.2,2.6-5.8,5.8-5.8
			c3.2,0,5.8,2.6,5.8,5.8v81.7c0,3.2,2.6,5.8,5.8,5.8h46.7c3.2,0,5.8-2.6,5.8-5.8V75.8c0-4.6,1.8-9.1,5.1-12.4
			c3.3-3.3,7.7-5.1,12.4-5.1h81.7c3.2,0,5.8,2.6,5.8,5.8c0,3.2-2.6,5.8-5.8,5.8h-81.7c-3.2,0-5.8,2.6-5.8,5.8c0,3.2,2.6,5.8,5.8,5.8
			h81.7c9.7,0,17.5-7.8,17.5-17.5c0-9.7-7.8-17.5-17.5-17.5h-81.7c-7.7,0-15.2,3.1-20.6,8.5c-5.5,5.5-8.5,12.9-8.5,20.6v40.8h-35
			V40.8c0-9.7-7.8-17.5-17.5-17.5c-9.7,0-17.5,7.8-17.5,17.5v81.7c0,16.1,13.1,29.2,29.2,29.2H199C201.7,165.2,213.7,175,227.5,175
			 M320.9,128.3c16.1,0,29.2-13.1,29.2-29.2v-70C350,13.1,337,0,320.9,0h-81.7c-9.7,0-17.5,7.8-17.5,17.5S229.5,35,239.2,35h81.7
			c3.2,0,5.8-2.6,5.8-5.8c0-3.2-2.6-5.8-5.8-5.8h-81.7c-3.2,0-5.8-2.6-5.8-5.8s2.6-5.8,5.8-5.8h81.7c9.7,0,17.5,7.8,17.5,17.5v70
			c0,9.7-7.8,17.5-17.5,17.5h-81.7c-3.2,0-5.8-2.6-5.8-5.8c0-3.2,2.6-5.8,5.8-5.8h81.7c3.2,0,5.8-2.6,5.8-5.8c0-3.2-2.6-5.8-5.8-5.8
			h-81.7c-9.7,0-17.5,7.8-17.5,17.5c0,9.7,7.8,17.5,17.5,17.5L320.9,128.3L320.9,128.3z M361.8,134.2c0,9.7,7.8,17.5,17.5,17.5
			s17.5-7.8,17.5-17.5V104c0-4.6,1.8-9.1,5.1-12.4l54.9-54.9c2.3-2.3,6-2.3,8.2,0s2.3,6,0,8.2l-38.4,38.4c-1.1,1.1-1.7,2.6-1.7,4.1
			c0,1.5,0.6,3,1.7,4.1l38.4,38.4c2.3,2.3,2.3,6,0,8.3s-6,2.3-8.2,0l-38.4-38.4c-1.5-1.5-3.6-2.1-5.6-1.5c-2,0.5-3.6,2.1-4.1,4.1
			c-0.5,2,0,4.2,1.5,5.6l38.4,38.4c6.8,6.8,17.9,6.8,24.7,0c6.8-6.8,6.8-17.9,0-24.8L439,87.5l34.3-34.3c4.4-4.4,6.1-10.9,4.5-16.9
			c-1.6-6-6.3-10.8-12.4-12.4c-6-1.6-12.5,0.1-16.9,4.5l-54.9,54.9c-5.5,5.5-8.5,12.9-8.5,20.6v30.2c0,3.2-2.6,5.8-5.8,5.8
			c-3.2,0-5.8-2.6-5.8-5.8V40.8c0-3.2,2.6-5.8,5.8-5.8c3.2,0,5.8,2.6,5.8,5.8V69c0,3.2,2.6,5.8,5.8,5.8c3.2,0,5.8-2.6,5.8-5.8V40.8
			c0-9.7-7.8-17.5-17.5-17.5s-17.5,7.8-17.5,17.5L361.8,134.2L361.8,134.2z"/>
	</g>
</g>
</svg>
