<svg xmlns="http://www.w3.org/2000/svg" xmlns:xlink="http://www.w3.org/1999/xlink">
    <defs>
        <path id="logo-a" d="M-179.992-210.14h841.89v595.28h-841.89z"/>
    </defs>
    <symbol id="facebook" viewBox="0 0 15.4 27.8">
        <style>.st0{fill:#010202}</style>
        <path class="st0"
              d="M15.4 4.8H11c-.5 0-1.1.7-1.1 1.6v3.2h5.5v4.5H9.9v13.6H4.7V14.1H0V9.6h4.7V6.9C4.7 3.1 7.4 0 11 0h4.4v4.8z"/>
    </symbol>
    <symbol id="instagram" viewBox="0 0 26.5 26.5">
        <style>.st0{fill:#010202}</style>
        <path class="st0"
              d="M21.3 13.3c0 4.4-3.6 8-8 8s-8-3.6-8-8c0-.5.1-1 .1-1.5H0v10.7c0 2.3 1.9 4.1 4.1 4.1h18.2c2.3 0 4.1-1.9 4.1-4.1V11.7H21c.2.5.3 1 .3 1.6zM22.4 0H4.1C1.9 0 0 1.9 0 4.1v4.5h6.7c1.5-2.1 3.8-3.4 6.6-3.4 2.7 0 5.1 1.3 6.5 3.4h6.7V4.1c0-2.2-1.8-4.1-4.1-4.1zm2 5.1c0 .4-.3.7-.7.7h-2.2c-.4 0-.7-.3-.7-.7V2.9c0-.4.3-.7.7-.7h2.2c.4 0 .7.3.7.7v2.2zm-6.2 8.2c0-2.7-2.2-4.9-4.9-4.9s-4.9 2.2-4.9 4.9 2.2 4.9 4.9 4.9 4.9-2.2 4.9-4.9z"/>
    </symbol>
    <symbol id="logo" viewBox="0 0 478.447 175">
        <clipPath id="logo-b">
            <use xlink:href="#logo-a" overflow="visible"/>
        </clipPath>
        <path clip-path="url(#logo-b)" fill-rule="evenodd" clip-rule="evenodd"
              d="M0 40.832c0-9.665 7.834-17.5 17.503-17.5 9.662 0 17.496 7.835 17.496 17.5v28.166a5.834 5.834 0 0 1-11.667 0V40.832a5.834 5.834 0 1 0-11.667 0v93.332a5.83 5.83 0 0 0 5.838 5.833 5.828 5.828 0 0 0 5.829-5.833v-30.166a29.18 29.18 0 0 1 8.543-20.625L86.794 28.46a17.483 17.483 0 0 1 16.9-4.531 17.478 17.478 0 0 1 12.374 12.375 17.493 17.493 0 0 1-4.527 16.902L77.245 87.499l34.296 34.292c6.834 6.834 6.834 17.915 0 24.751-6.833 6.834-17.913 6.834-24.747 0l-38.42-38.419a5.829 5.829 0 0 1-1.507-5.636 5.833 5.833 0 0 1 9.759-2.614l38.418 38.416a5.83 5.83 0 0 0 8.245 0 5.838 5.838 0 0 0 0-8.252L64.873 91.625a5.852 5.852 0 0 1-1.706-4.125 5.85 5.85 0 0 1 1.706-4.127l38.416-38.418a5.832 5.832 0 0 0 0-8.247 5.83 5.83 0 0 0-8.245 0l-54.92 54.917a17.49 17.49 0 0 0-5.125 12.373v30.166c0 9.663-7.834 17.5-17.496 17.5-9.669 0-17.503-7.837-17.503-17.5V40.832zM227.539 175h81.668c9.662 0 17.5-7.838 17.5-17.506 0-9.661-7.838-17.498-17.5-17.498h-81.668a5.835 5.835 0 0 0-5.833 5.837c0 3.22 2.611 5.83 5.833 5.83h81.668a5.832 5.832 0 0 1 5.833 5.831 5.832 5.832 0 0 1-5.833 5.836h-81.668c-9.665 0-17.498-7.835-17.498-17.497a5.837 5.837 0 0 0-5.836-5.837H157.54c-9.662 0-17.5-7.833-17.5-17.5V40.832a5.836 5.836 0 0 1 5.831-5.836 5.838 5.838 0 0 1 5.836 5.836v81.665a5.834 5.834 0 0 0 5.833 5.837h46.665a5.836 5.836 0 0 0 5.836-5.837V75.832c0-4.642 1.841-9.091 5.121-12.376a17.521 17.521 0 0 1 12.377-5.122h81.668c3.222 0 5.833 2.607 5.833 5.829s-2.611 5.836-5.833 5.836h-81.668a5.832 5.832 0 0 0-5.833 5.833 5.827 5.827 0 0 0 5.833 5.829h81.668c9.662 0 17.5-7.831 17.5-17.498 0-9.663-7.838-17.498-17.5-17.498h-81.668a29.145 29.145 0 0 0-20.622 8.543 29.157 29.157 0 0 0-8.545 20.624v40.834h-34.996V40.832c0-9.665-7.84-17.5-17.505-17.5-9.662 0-17.498 7.835-17.498 17.5v81.665c0 16.11 13.058 29.167 29.167 29.167h41.421C201.736 165.246 213.678 175 227.539 175m93.332-46.667c16.108 0 29.167-13.059 29.167-29.167V29.165C350.038 13.06 336.979 0 320.871 0h-81.663c-9.667 0-17.502 7.833-17.502 17.498s7.835 17.498 17.502 17.498h81.663a5.834 5.834 0 0 0 5.836-5.831 5.837 5.837 0 0 0-5.836-5.833h-81.663a5.834 5.834 0 0 1 0-11.667h81.663c9.665 0 17.503 7.831 17.503 17.5v70.001c0 9.665-7.838 17.5-17.503 17.5h-81.663a5.838 5.838 0 0 1-5.835-5.839 5.831 5.831 0 0 1 5.835-5.828h81.663a5.837 5.837 0 0 0 5.836-5.833 5.84 5.84 0 0 0-5.836-5.837h-81.663c-9.667 0-17.502 7.836-17.502 17.498 0 9.667 7.835 17.506 17.502 17.506h81.663zm40.91 5.831c0 9.663 7.833 17.5 17.498 17.5s17.498-7.837 17.498-17.5v-30.166a17.49 17.49 0 0 1 5.128-12.373l54.917-54.917a5.832 5.832 0 0 1 8.247 8.247l-38.417 38.418a5.83 5.83 0 0 0-1.704 4.127c0 1.547.61 3.03 1.704 4.125l38.417 38.412a5.832 5.832 0 1 1-8.247 8.252l-38.418-38.416a5.831 5.831 0 0 0-9.759 2.614 5.826 5.826 0 0 0 1.51 5.636l38.417 38.419c6.835 6.834 17.915 6.834 24.749 0 6.835-6.836 6.835-17.917 0-24.751l-34.295-34.292 34.295-34.293a17.506 17.506 0 0 0 4.528-16.902 17.493 17.493 0 0 0-12.375-12.375 17.488 17.488 0 0 0-16.902 4.531l-54.919 54.912a29.19 29.19 0 0 0-8.541 20.625v30.166a5.83 5.83 0 0 1-5.833 5.833 5.83 5.83 0 0 1-5.836-5.833V40.832c0-3.22 2.61-5.836 5.836-5.836a5.836 5.836 0 0 1 5.833 5.836v28.166a5.833 5.833 0 0 0 11.665 0V40.832c0-9.665-7.833-17.5-17.498-17.5s-17.498 7.835-17.498 17.5v93.332z"/>
    </symbol>
    <symbol id="pinterest" viewBox="0 0 24 30.8">
        <style>.st0{fill:#010202}</style>
        <path class="st0"
              d="M9.9 20.4c-.8 4.2-1.8 8.3-4.7 10.4-.9-6.4 1.3-11.2 2.4-16.4-1.8-3 .2-9 3.9-7.5 4.6 1.8-4 11.1 1.8 12.2 6 1.2 8.5-10.4 4.7-14.2-5.4-5.3-15.7 0-14.4 7.8.3 1.9 2.3 2.5.8 5.1C1 17-.1 14.3.1 10.7.2 4.8 5.3.7 10.5.1 16.9-.6 23 2.5 23.9 8.6c.9 6.9-2.9 14.3-9.9 13.8-1.9-.2-2.7-1.1-4.1-2z"/>
    </symbol>
    <symbol id="twitter" viewBox="0 0 28.4 23.1">
        <style>.st0{fill:#010202}</style>
        <path class="st0"
              d="M28.4 2.7c-1 .5-2.2.8-3.3.9 1.2-.7 2.1-1.9 2.6-3.2-1.1.7-2.4 1.2-3.7 1.4C22.8.7 21.3 0 19.6 0c-3.2 0-5.8 2.6-5.8 5.8 0 .5.1.9.2 1.3-4.9-.2-9.2-2.5-12-6-.5.8-.8 1.8-.8 2.9 0 2 1 3.8 2.6 4.8-1 0-1.9-.3-2.6-.7v.1c0 2.8 2 5.2 4.7 5.7-.5.1-1 .2-1.5.2-.4 0-.7 0-1.1-.1.7 2.3 2.9 4 5.4 4-2 1.6-4.5 2.5-7.2 2.5-.5 0-.9 0-1.4-.1C2.7 22.1 5.7 23 9 23c10.7 0 16.6-8.9 16.6-16.6v-.8c1-.7 2-1.7 2.8-2.9z"/>
    </symbol>
</svg>